<?xml version="1.0" encoding="UTF-8"?>
<svg xmlns="http://www.w3.org/2000/svg" width="1024.000000" height="1024.000000" viewBox="0 0 1024.000000 1024.000000">
  <!-- Blue/gray shadow layer -->
  <g transform="translate(0.000000,1024.000000) scale(0.100000,-0.100000)" fill="#7a8fa6" stroke="none">
    <path d="M8235 8415 c3 -16 12 -82 21 -145 8 -63 34 -227 56 -365 48 -300 60
-415 55 -532 -3 -80 -3 -78 -5 32 -1 65 -6 115 -10 110 -5 -6 -27 -63 -51
-127 -23 -65 -50 -137 -60 -161 l-19 -43 -328 -124 c-475 -177 -816 -305 -919
-345 -49 -19 -194 -73 -321 -120 l-230 -85 -227 0 c-125 0 -227 -2 -227 -5 0
-3 22 -35 48 -72 40 -57 90 -137 238 -380 22 -35 130 -81 249 -107 l111 -23
114 37 c63 21 317 102 564 181 l448 143 92 85 c50 47 208 196 352 333 143 136
277 260 297 275 20 16 38 34 41 41 3 7 8 131 12 275 6 268 1 332 -46 541 -10
48 -18 56 139 -139 67 -82 148 -181 181 -220 l60 -70 0 -391 0 -390 -428 -427
c-235 -235 -445 -439 -466 -453 -21 -14 -68 -40 -104 -57 l-67 -31 40 -7 c22
-4 90 -10 152 -14 l111 -7 465 458 465 459 1 457 1 456 -53 64 c-29 35 -143
173 -252 308 -180 221 -443 543 -487 595 -17 20 -18 19 -13 -10z m-133 -1549
c-65 -62 -155 -149 -202 -192 -46 -44 -121 -113 -165 -155 l-80 -76 -205 -65
c-113 -37 -355 -114 -537 -173 l-333 -107 -82 27 c-46 15 -89 32 -95 38 -12 9
-103 153 -103 162 0 3 38 5 84 5 l83 0 684 256 c671 250 939 351 1009 379 19
8 40 14 47 14 6 1 -41 -50 -105 -113z"/>
    <path d="M1839 8233 c-91 -109 -212 -254 -267 -323 -56 -69 -140 -172 -188
-230 -47 -58 -106 -131 -131 -162 l-46 -57 2 -461 2 -460 450 -447 c248 -247
458 -452 466 -457 13 -7 282 10 290 18 2 2 -32 20 -75 42 -72 36 -109 70 -524
478 l-448 440 0 390 0 391 175 213 c96 118 184 226 195 240 19 24 20 25 15 5
-3 -12 -17 -79 -30 -149 -27 -137 -32 -314 -19 -572 l7 -120 54 -45 c29 -25
205 -189 390 -364 l336 -318 546 -178 c300 -98 556 -178 568 -178 62 2 279 53
316 75 55 32 59 37 157 201 46 77 107 175 137 217 29 43 53 80 53 83 0 3 -101
5 -225 5 l-226 0 -147 54 c-170 63 -739 274 -1087 404 -132 50 -310 116 -395
148 -85 31 -160 62 -166 68 -13 13 -51 106 -109 271 -34 98 -40 126 -34 155
25 108 132 796 127 812 -2 5 -78 -79 -169 -189z m746 -1460 c127 -47 446 -166
709 -264 l479 -179 84 0 c47 0 83 -3 81 -7 -20 -45 -96 -163 -108 -166 -8 -3
-55 -17 -105 -31 l-89 -27 -86 30 c-47 16 -276 91 -510 166 -234 75 -433 139
-442 143 -10 4 -113 99 -231 212 -117 113 -243 233 -280 268 -37 35 -67 65
-67 67 0 1 75 -26 168 -62 92 -35 271 -103 397 -150z"/>
    <path d="M8690 7189 l0 -396 -392 -384 c-216 -211 -408 -399 -426 -417 -29
-31 -64 -43 -355 -132 -177 -55 -403 -125 -502 -158 l-180 -59 -135 44 c-143
45 -200 59 -200 49 0 -4 13 -32 29 -64 15 -31 38 -85 51 -118 l22 -61 123 -13
123 -12 138 46 c184 59 343 109 671 209 l271 82 414 405 c227 223 437 428 466
454 l52 49 0 340 0 340 -58 61 c-31 34 -69 77 -84 96 l-27 35 -1 -396z"/>
    <path d="M1463 7475 l-83 -95 0 -332 1 -333 464 -455 c255 -250 475 -458 487
-462 13 -4 136 -42 273 -84 138 -42 318 -98 400 -124 83 -27 205 -65 273 -85
l123 -36 118 12 118 12 13 36 c7 20 31 73 52 119 22 46 37 86 34 89 -2 3 -69
-14 -148 -37 -79 -24 -155 -45 -169 -47 -16 -3 -176 42 -410 115 -211 66 -433
135 -493 153 l-108 33 -429 420 -430 420 3 388 c2 213 1 388 -2 388 -3 0 -42
-43 -87 -95z"/>
    <path d="M4355 6334 c-96 -142 -132 -185 -180 -222 -84 -64 -224 -184 -260
-221 -34 -37 -54 -12 155 -193 80 -69 175 -157 211 -194 79 -83 202 -246 252
-336 20 -36 42 -70 49 -75 7 -6 49 -25 93 -42 44 -18 90 -39 103 -47 12 -8 22
-11 22 -7 0 22 -119 276 -153 328 -66 99 -217 272 -361 414 -75 74 -136 135
-136 137 0 1 45 36 99 78 106 81 133 110 226 246 32 47 67 95 78 108 l20 22
548 0 548 0 44 -57 c24 -32 64 -90 89 -128 54 -84 89 -120 188 -194 41 -31 81
-61 89 -67 13 -10 2 -24 -64 -85 -165 -151 -280 -279 -406 -449 -44 -59 -159
-305 -159 -339 0 -5 48 12 108 38 l107 48 63 103 c63 104 138 204 222 294 33
35 349 323 400 364 9 7 -138 140 -232 211 -111 82 -117 89 -201 216 -36 55
-86 128 -111 163 l-46 62 -643 0 -642 0 -120 -176z"/>
    <path d="M3772 5546 c-46 -84 -52 -123 -72 -431 -15 -233 -14 -230 -54 -276
-30 -36 -35 -50 -42 -117 -9 -95 -1 -218 22 -347 l18 -100 206 -202 205 -202
3 -323 4 -323 -87 85 -86 85 6 60 c4 33 13 103 20 155 7 52 16 124 20 160 l6
65 -40 43 c-23 24 -62 70 -88 103 -25 33 -48 58 -50 56 -2 -2 2 -36 9 -76 9
-55 9 -88 0 -149 -46 -297 -62 -412 -62 -446 0 -37 9 -48 165 -207 91 -93 170
-180 175 -195 6 -14 10 -56 10 -93 l0 -68 108 -104 c59 -57 168 -147 241 -199
l134 -95 81 -122 81 -122 416 -1 416 0 80 124 c75 115 86 128 159 177 141 94
236 171 326 263 l88 90 0 85 0 84 176 176 176 176 -11 85 c-7 47 -26 172 -43
277 -30 187 -30 195 -16 268 8 41 12 75 8 75 -4 0 -21 -21 -40 -46 -18 -25
-56 -74 -85 -108 l-52 -61 13 -119 c8 -65 18 -145 24 -179 19 -116 18 -117
-70 -204 l-79 -78 -3 313 -3 313 206 202 206 202 19 105 c13 72 19 149 19 245
-1 145 -8 176 -54 230 -14 16 -23 78 -44 315 l-27 295 -40 78 c-36 68 -60 95
-60 69 0 -19 -554 -529 -623 -574 -39 -26 -80 -53 -89 -60 -16 -12 -17 -29 -8
-208 5 -107 12 -342 16 -523 l6 -328 70 -67 c38 -37 74 -68 79 -70 5 -2 9 186
9 476 l0 480 28 7 c15 4 64 8 109 9 79 2 83 3 140 46 65 49 176 157 216 210
l27 35 0 -86 c0 -71 -4 -91 -20 -111 -24 -31 -180 -167 -317 -277 -145 -115
-152 -130 -158 -315 -2 -80 -2 -146 0 -146 2 0 22 35 45 78 67 127 112 180
231 266 60 44 149 117 199 163 l90 85 -1 -99 c0 -54 -6 -134 -13 -178 l-13
-80 -212 -205 -211 -206 1 -533 1 -533 -73 -65 c-41 -36 -105 -89 -143 -118
l-69 -52 -72 28 c-39 15 -125 40 -191 56 -114 27 -129 28 -364 27 -269 0 -301
-5 -505 -76 l-91 -32 -54 43 c-30 24 -92 75 -137 115 l-82 71 0 534 -1 533
-206 202 c-240 234 -233 222 -241 442 l-5 131 68 -65 c38 -35 133 -115 210
-178 138 -110 143 -116 210 -225 38 -62 74 -114 80 -116 16 -5 24 54 24 170
l0 99 -37 45 c-21 25 -83 82 -138 127 -55 44 -153 127 -217 184 l-118 103 0
83 0 84 103 -102 c56 -55 121 -115 143 -133 l41 -32 117 6 117 6 -3 -486 c-2
-268 0 -487 3 -487 4 0 24 17 45 38 22 21 55 51 75 67 l37 30 5 532 6 531 -28
12 c-70 29 -158 103 -416 350 -153 146 -281 266 -285 268 -4 2 -26 -31 -48
-72z m380 -473 c114 -111 116 -114 92 -123 -39 -15 -58 -12 -101 18 -61 42
-87 64 -110 98 -20 28 -103 207 -103 221 0 4 24 -17 53 -47 28 -29 105 -105
169 -167z m2124 128 c-41 -98 -82 -157 -145 -210 -45 -37 -54 -41 -106 -41
-31 0 -55 4 -53 9 2 8 326 317 335 320 1 1 -13 -34 -31 -78z m-941 -2626 c60
-5 206 -42 218 -54 5 -5 -17 -47 -52 -100 l-62 -91 -317 0 -318 0 -68 96 c-37
53 -66 97 -64 99 2 1 41 12 88 25 125 34 363 44 575 25z"/>
    <path d="M7100 5374 c-157 -46 -329 -96 -382 -111 -76 -20 -98 -30 -98 -43 0
-10 16 -94 35 -189 19 -94 35 -182 35 -196 0 -16 7 -28 18 -31 9 -3 58 -24
107 -46 207 -94 268 -118 427 -172 93 -32 174 -56 182 -54 19 4 496 540 614
690 12 15 -15 26 -315 124 -180 58 -330 108 -333 109 -3 1 -133 -35 -290 -81z
m462 -161 c98 -31 178 -60 178 -64 0 -10 -170 -197 -246 -271 l-59 -57 -254
85 c-140 47 -273 87 -296 91 -42 5 -42 6 -55 60 -6 30 -10 56 -8 57 1 1 71 21
153 45 83 23 200 57 260 76 61 18 119 33 129 34 11 1 100 -25 198 -56z"/>
    <path d="M2755 5425 c-33 -13 -171 -58 -307 -101 -136 -44 -248 -83 -248 -89
0 -5 30 -44 66 -85 37 -41 149 -172 250 -291 100 -119 207 -243 237 -275 l54
-58 134 43 c196 63 312 107 419 160 52 26 114 55 137 64 29 11 44 24 47 39 3
18 35 166 83 383 4 19 -7 24 -114 52 -65 17 -235 65 -378 107 -143 42 -273 75
-290 75 -16 -1 -57 -12 -90 -24z m376 -230 c144 -41 267 -75 275 -75 17 0 17
-2 1 -64 l-13 -48 -89 -23 c-79 -21 -387 -122 -469 -154 -27 -11 -32 -9 -69
26 -22 21 -93 96 -159 167 l-119 129 173 54 c95 30 175 57 177 59 9 9 42 1
292 -71z"/>
    <path d="M4660 4363 l0 -498 -122 -93 c-68 -50 -140 -107 -160 -125 l-36 -33
-1 -304 -2 -305 113 -112 113 -112 70 19 c38 11 79 20 91 20 19 0 135 84 238
173 l39 33 -8 127 -7 126 -111 102 c-62 56 -133 125 -158 152 l-46 51 -67 -48
c-36 -26 -66 -53 -66 -59 0 -7 63 -71 140 -142 139 -130 139 -130 146 -183 3
-29 5 -54 3 -56 -2 -1 -31 -23 -64 -48 -33 -25 -76 -55 -96 -66 l-35 -21 -62
62 -62 63 0 211 c0 116 3 225 6 242 6 27 25 44 139 119 74 48 141 92 149 97
15 9 17 60 19 487 l2 477 -74 68 c-41 37 -78 70 -83 71 -4 2 -8 -221 -8 -495z"/>
    <path d="M5492 4792 l-72 -67 0 -481 0 -481 83 -53 c45 -28 115 -75 154 -103
l73 -52 0 -235 0 -236 -60 -59 -60 -59 -37 19 c-20 11 -63 39 -95 62 l-58 43
1 57 0 58 134 125 c87 82 134 132 134 146 1 16 -16 33 -61 62 l-63 41 -152
-148 -152 -148 -10 -96 c-19 -169 -26 -151 99 -253 60 -49 110 -92 110 -96 0
-5 10 -8 23 -8 12 0 58 -11 102 -23 l80 -23 117 110 118 111 0 306 0 306 -87
73 c-49 40 -121 96 -160 124 l-73 50 0 498 c0 274 -3 498 -7 498 -5 -1 -41
-31 -81 -68z"/>
  </g>
  <!-- Dark outline layer -->
  <g transform="translate(0.000000,1024.000000) scale(0.100000,-0.100000)" fill="#1a1f2e" stroke="none">
    <path d="M8690 7181 l0 -394 -333 -326 c-183 -179 -375 -367 -427 -418 l-96
-92 -234 -71 c-129 -39 -354 -110 -499 -156 l-263 -86 -147 45 c-214 65 -196
67 -157 -12 18 -36 41 -88 51 -116 10 -27 19 -51 20 -53 2 -1 57 -9 124 -16
113 -13 126 -12 170 5 55 20 354 114 749 234 l272 83 118 113 c64 62 275 268
468 457 l351 345 -2 332 -1 332 -56 64 c-31 35 -68 78 -82 94 l-25 30 -1 -394z"/>
    <path d="M1468 7475 l-78 -83 0 -339 0 -339 466 -457 c256 -251 471 -457 478
-457 8 0 175 -50 372 -111 748 -233 687 -217 784 -207 152 16 146 14 159 58 6
21 29 74 51 117 21 43 38 79 36 80 -1 2 -22 -3 -47 -11 -24 -8 -98 -31 -164
-51 l-120 -36 -340 106 c-187 59 -411 129 -499 155 -157 47 -158 48 -219 106
-34 33 -194 190 -357 350 -162 159 -328 321 -367 359 l-73 68 -2 388 -3 387
-77 -83z"/>
    <path d="M1880 7309 l0 -217 62 -51 c35 -28 68 -51 75 -51 7 0 101 -34 210
-76 109 -42 295 -112 413 -156 118 -44 420 -157 670 -251 451 -169 456 -171
544 -173 48 -2 90 -4 91 -6 4 -4 -82 -150 -97 -164 -7 -7 -56 -25 -108 -41
l-95 -29 -27 -79 c-15 -44 -25 -81 -24 -83 8 -7 271 51 309 68 63 29 67 34
159 186 47 78 111 179 142 226 31 46 56 87 56 91 0 4 -103 7 -228 7 l-228 0
-160 59 c-359 132 -1012 375 -1419 528 -110 41 -203 78 -207 82 -4 4 -37 83
-73 176 l-64 170 -1 -216z"/>
    <path d="M8330 7448 c-62 -174 -102 -267 -118 -273 -9 -4 -179 -67 -377 -142
-198 -74 -423 -159 -500 -188 -146 -56 -174 -66 -623 -233 l-274 -102 -229 -2
c-126 -1 -229 -3 -229 -5 0 -2 38 -61 84 -131 46 -70 110 -171 141 -225 60
-102 83 -124 156 -155 48 -21 257 -67 265 -59 3 3 -9 40 -26 84 l-31 79 -87
29 -87 30 -52 85 c-28 46 -49 88 -46 93 3 5 38 6 78 2 l72 -6 254 94 c140 53
533 200 874 328 341 127 629 234 640 237 11 3 48 28 82 56 l62 51 0 208 c1
114 -1 207 -3 207 -2 0 -13 -28 -26 -62z"/>
    <path d="M1713 7280 c0 -36 2 -50 4 -32 2 17 2 47 0 65 -2 17 -4 3 -4 -33z"/>
    <path d="M3772 5532 l-41 -87 -16 -205 c-9 -113 -18 -239 -22 -280 -4 -51 -11
-81 -23 -95 -54 -61 -60 -83 -60 -224 0 -171 23 -323 56 -371 13 -20 107 -118
209 -220 l185 -183 -1 -526 -1 -527 99 -96 c108 -107 175 -162 303 -248 80
-54 91 -66 165 -179 l80 -121 416 0 416 0 78 120 c74 115 81 123 169 182 130
87 250 185 331 270 l70 73 -3 527 -3 528 209 207 209 208 17 120 c12 82 17
160 15 246 -4 123 -5 127 -38 180 -32 51 -34 62 -47 202 -39 450 -34 415 -76
500 -21 42 -41 77 -44 77 -3 0 -97 -87 -207 -194 -311 -298 -381 -359 -458
-402 l-71 -39 6 -115 c3 -63 9 -300 13 -526 l6 -411 74 -67 73 -67 0 475 0
475 38 10 c20 6 69 11 108 11 60 0 76 4 117 30 59 37 195 167 233 222 l29 41
7 -44 c15 -99 10 -133 -23 -165 -37 -35 -75 -86 -61 -82 6 2 30 -20 55 -49
l44 -51 25 25 25 25 7 -76 c7 -75 -7 -227 -26 -275 -5 -14 -101 -114 -214
-224 l-204 -199 -1 -536 0 -537 -77 -67 c-80 -70 -204 -164 -307 -233 -48 -32
-72 -58 -124 -137 l-64 -98 -326 2 -325 3 -69 97 c-63 90 -78 104 -178 173
-61 41 -159 116 -219 167 l-109 93 0 542 c-1 329 -5 543 -10 545 -6 2 -99 91
-209 200 l-198 196 -17 94 c-18 98 -23 268 -9 268 5 0 19 -11 32 -25 23 -24
47 -35 35 -16 -3 6 7 25 23 43 54 62 55 71 17 113 -33 35 -35 42 -35 105 0 38
2 75 5 82 4 10 36 -16 98 -79 51 -52 115 -112 143 -134 l51 -39 116 0 117 0 0
-486 0 -486 73 69 74 68 7 490 c4 269 9 506 12 526 l6 36 -75 41 c-57 31 -115
80 -231 191 -86 82 -218 208 -295 280 l-138 130 -41 -87z m327 -402 c96 -93
173 -171 170 -173 -2 -2 -18 -9 -36 -15 -26 -9 -38 -7 -68 8 -98 50 -140 100
-201 241 -43 98 -47 109 -41 109 1 -1 80 -77 176 -170z m2211 133 c-10 -21
-35 -72 -54 -114 -36 -76 -81 -131 -147 -181 -30 -23 -41 -25 -92 -21 -32 3
-57 9 -55 13 2 4 75 74 163 155 88 81 166 156 173 166 23 33 31 20 12 -18z"/>
    <path d="M3565 5204 c-16 -14 -55 -38 -87 -54 -54 -28 -56 -31 -63 -78 -3 -26
-9 -53 -13 -58 -4 -6 -38 -18 -76 -28 -65 -16 -504 -160 -511 -168 -3 -3 -8
-251 -6 -279 1 -7 221 62 361 114 52 19 157 65 232 102 l136 66 7 42 c4 23 22
110 41 194 19 84 34 157 34 163 0 17 -23 11 -55 -16z"/>
    <path d="M6627 5203 c3 -16 17 -93 33 -173 16 -80 31 -161 34 -180 7 -38 -15
-26 289 -161 97 -43 402 -149 430 -149 15 0 17 13 17 138 l0 138 -242 82
c-134 44 -268 86 -300 92 l-56 11 -8 52 c-5 29 -9 57 -9 63 -1 22 -30 46 -97
80 -83 42 -97 43 -91 7z"/>
    <path d="M7520 4895 c-41 -41 -72 -75 -69 -75 2 0 38 34 79 75 41 41 72 75 69
75 -2 0 -38 -34 -79 -75z"/>
    <path d="M4673 4505 c0 -38 2 -53 4 -32 2 20 2 52 0 70 -2 17 -4 1 -4 -38z"/>
    <path d="M4610 3533 c-84 -61 -84 -54 0 -128 30 -26 92 -84 138 -128 l82 -80
0 -53 c0 -58 -4 -63 -137 -152 -55 -37 -66 -51 -98 -118 -20 -42 -34 -78 -32
-80 2 -2 39 5 82 16 43 11 86 20 95 20 15 0 240 176 254 199 4 5 2 63 -4 128
l-11 118 -156 150 -155 151 -58 -43z"/>
    <path d="M5414 3425 l-152 -150 -7 -100 c-3 -55 -9 -109 -12 -121 -3 -17 12
-34 73 -85 42 -35 95 -80 117 -99 21 -19 51 -36 66 -38 14 -2 57 -12 95 -23
38 -10 71 -17 73 -15 3 2 0 12 -5 23 -6 10 -20 45 -33 79 -19 52 -30 66 -68
90 -25 15 -70 46 -98 68 -52 40 -53 42 -53 93 l0 52 97 93 c176 168 185 177
181 189 -2 7 -31 31 -64 53 l-59 41 -151 -150z"/>
  </g>
</svg>