<?xml version="1.0" standalone="no"?>
<!DOCTYPE svg PUBLIC "-//W3C//DTD SVG 20010904//EN"
 "http://www.w3.org/TR/2001/REC-SVG-20010904/DTD/svg10.dtd">
<svg version="1.0" xmlns="http://www.w3.org/2000/svg"
 width="1024.000000pt" height="1024.000000pt" viewBox="0 0 1024.000000 1024.000000"
 preserveAspectRatio="xMidYMid meet">
<metadata>
Created by potrace 1.16, written by Peter Selinger 2001-2019
</metadata>
<g transform="translate(0.000000,1024.000000) scale(0.100000,-0.100000)"
fill="#000000" stroke="none">
<path d="M8235 8415 c3 -16 12 -82 21 -145 8 -63 34 -227 56 -365 48 -300 60
-415 55 -532 -3 -80 -3 -78 -5 32 -1 65 -6 115 -10 110 -5 -6 -27 -63 -51
-127 -23 -65 -50 -137 -60 -161 l-19 -43 -328 -124 c-475 -177 -816 -305 -919
-345 -49 -19 -194 -73 -321 -120 l-230 -85 -227 0 c-125 0 -227 -2 -227 -5 0
-3 22 -35 48 -72 40 -57 90 -137 238 -380 22 -35 130 -81 249 -107 l111 -23
114 37 c63 21 317 102 564 181 l448 143 92 85 c50 47 208 196 352 333 143 136
277 260 297 275 20 16 38 34 41 41 3 7 8 131 12 275 6 268 1 332 -46 541 -10
48 -18 56 139 -139 67 -82 148 -181 181 -220 l60 -70 0 -391 0 -390 -428 -427
c-235 -235 -445 -439 -466 -453 -21 -14 -68 -40 -104 -57 l-67 -31 40 -7 c22
-4 90 -10 152 -14 l111 -7 465 458 465 459 1 457 1 456 -53 64 c-29 35 -143
173 -252 308 -180 221 -443 543 -487 595 -17 20 -18 19 -13 -10z m-133 -1549
c-65 -62 -155 -149 -202 -192 -46 -44 -121 -113 -165 -155 l-80 -76 -205 -65
c-113 -37 -355 -114 -537 -173 l-333 -107 -82 27 c-46 15 -89 32 -95 38 -12 9
-103 153 -103 162 0 3 38 5 84 5 l83 0 684 256 c671 250 939 351 1009 379 19
8 40 14 47 14 6 1 -41 -50 -105 -113z"/>
<path d="M1839 8233 c-91 -109 -212 -254 -267 -323 -56 -69 -140 -172 -188
-230 -47 -58 -106 -131 -131 -162 l-46 -57 2 -461 2 -460 450 -447 c248 -247
458 -452 466 -457 13 -7 282 10 290 18 2 2 -32 20 -75 42 -72 36 -109 70 -524
478 l-448 440 0 390 0 391 175 213 c96 118 184 226 195 240 19 24 20 25 15 5
-3 -12 -17 -79 -30 -149 -27 -137 -32 -314 -19 -572 l7 -120 54 -45 c29 -25
205 -189 390 -364 l336 -318 546 -178 c300 -98 556 -178 568 -178 62 2 279 53
316 75 55 32 59 37 157 201 46 77 107 175 137 217 29 43 53 80 53 83 0 3 -101
5 -225 5 l-226 0 -147 54 c-170 63 -739 274 -1087 404 -132 50 -310 116 -395
148 -85 31 -160 62 -166 68 -13 13 -51 106 -109 271 -34 98 -40 126 -34 155
25 108 132 796 127 812 -2 5 -78 -79 -169 -189z m746 -1460 c127 -47 446 -166
709 -264 l479 -179 84 0 c47 0 83 -3 81 -7 -20 -45 -96 -163 -108 -166 -8 -3
-55 -17 -105 -31 l-89 -27 -86 30 c-47 16 -276 91 -510 166 -234 75 -433 139
-442 143 -10 4 -113 99 -231 212 -117 113 -243 233 -280 268 -37 35 -67 65
-67 67 0 1 75 -26 168 -62 92 -35 271 -103 397 -150z"/>
<path d="M8690 7189 l0 -396 -392 -384 c-216 -211 -408 -399 -426 -417 -29
-31 -64 -43 -355 -132 -177 -55 -403 -125 -502 -158 l-180 -59 -135 44 c-143
45 -200 59 -200 49 0 -4 13 -32 29 -64 15 -31 38 -85 51 -118 l22 -61 123 -13
123 -12 138 46 c184 59 343 109 671 209 l271 82 414 405 c227 223 437 428 466
454 l52 49 0 340 0 340 -58 61 c-31 34 -69 77 -84 96 l-27 35 -1 -396z"/>
<path d="M1463 7475 l-83 -95 0 -332 1 -333 464 -455 c255 -250 475 -458 487
-462 13 -4 136 -42 273 -84 138 -42 318 -98 400 -124 83 -27 205 -65 273 -85
l123 -36 118 12 118 12 13 36 c7 20 31 73 52 119 22 46 37 86 34 89 -2 3 -69
-14 -148 -37 -79 -24 -155 -45 -169 -47 -16 -3 -176 42 -410 115 -211 66 -433
135 -493 153 l-108 33 -429 420 -430 420 3 388 c2 213 1 388 -2 388 -3 0 -42
-43 -87 -95z"/>
<path d="M4355 6334 c-96 -142 -132 -185 -180 -222 -84 -64 -224 -184 -260
-221 -34 -37 -54 -12 155 -193 80 -69 175 -157 211 -194 79 -83 202 -246 252
-336 20 -36 42 -70 49 -75 7 -6 49 -25 93 -42 44 -18 90 -39 103 -47 12 -8 22
-11 22 -7 0 22 -119 276 -153 328 -66 99 -217 272 -361 414 -75 74 -136 135
-136 137 0 1 45 36 99 78 106 81 133 110 226 246 32 47 67 95 78 108 l20 22
548 0 548 0 44 -57 c24 -32 64 -90 89 -128 54 -84 89 -120 188 -194 41 -31 81
-61 89 -67 13 -10 2 -24 -64 -85 -165 -151 -280 -279 -406 -449 -44 -59 -159
-305 -159 -339 0 -5 48 12 108 38 l107 48 63 103 c63 104 138 204 222 294 33
35 349 323 400 364 9 7 -138 140 -232 211 -111 82 -117 89 -201 216 -36 55
-86 128 -111 163 l-46 62 -643 0 -642 0 -120 -176z"/>
<path d="M3772 5546 c-46 -84 -52 -123 -72 -431 -15 -233 -14 -230 -54 -276
-30 -36 -35 -50 -42 -117 -9 -95 -1 -218 22 -347 l18 -100 206 -202 205 -202
3 -323 4 -323 -87 85 -86 85 6 60 c4 33 13 103 20 155 7 52 16 124 20 160 l6
65 -40 43 c-23 24 -62 70 -88 103 -25 33 -48 58 -50 56 -2 -2 2 -36 9 -76 9
-55 9 -88 0 -149 -46 -297 -62 -412 -62 -446 0 -37 9 -48 165 -207 91 -93 170
-180 175 -195 6 -14 10 -56 10 -93 l0 -68 108 -104 c59 -57 168 -147 241 -199
l134 -95 81 -122 81 -122 416 -1 416 0 80 124 c75 115 86 128 159 177 141 94
236 171 326 263 l88 90 0 85 0 84 176 176 176 176 -11 85 c-7 47 -26 172 -43
277 -30 187 -30 195 -16 268 8 41 12 75 8 75 -4 0 -21 -21 -40 -46 -18 -25
-56 -74 -85 -108 l-52 -61 13 -119 c8 -65 18 -145 24 -179 19 -116 18 -117
-70 -204 l-79 -78 -3 313 -3 313 206 202 206 202 19 105 c13 72 19 149 19 245
-1 145 -8 176 -54 230 -14 16 -23 78 -44 315 l-27 295 -40 78 c-36 68 -60 95
-60 69 0 -19 -554 -529 -623 -574 -39 -26 -80 -53 -89 -60 -16 -12 -17 -29 -8
-208 5 -107 12 -342 16 -523 l6 -328 70 -67 c38 -37 74 -68 79 -70 5 -2 9 186
9 476 l0 480 28 7 c15 4 64 8 109 9 79 2 83 3 140 46 65 49 176 157 216 210
l27 35 0 -86 c0 -71 -4 -91 -20 -111 -24 -31 -180 -167 -317 -277 -145 -115
-152 -130 -158 -315 -2 -80 -2 -146 0 -146 2 0 22 35 45 78 67 127 112 180
231 266 60 44 149 117 199 163 l90 85 -1 -99 c0 -54 -6 -134 -13 -178 l-13
-80 -212 -205 -211 -206 1 -533 1 -533 -73 -65 c-41 -36 -105 -89 -143 -118
l-69 -52 -72 28 c-39 15 -125 40 -191 56 -114 27 -129 28 -364 27 -269 0 -301
-5 -505 -76 l-91 -32 -54 43 c-30 24 -92 75 -137 115 l-82 71 0 534 -1 533
-206 202 c-240 234 -233 222 -241 442 l-5 131 68 -65 c38 -35 133 -115 210
-178 138 -110 143 -116 210 -225 38 -62 74 -114 80 -116 16 -5 24 54 24 170
l0 99 -37 45 c-21 25 -83 82 -138 127 -55 44 -153 127 -217 184 l-118 103 0
83 0 84 103 -102 c56 -55 121 -115 143 -133 l41 -32 117 6 117 6 -3 -486 c-2
-268 0 -487 3 -487 4 0 24 17 45 38 22 21 55 51 75 67 l37 30 5 532 6 531 -28
12 c-70 29 -158 103 -416 350 -153 146 -281 266 -285 268 -4 2 -26 -31 -48
-72z m380 -473 c114 -111 116 -114 92 -123 -39 -15 -58 -12 -101 18 -61 42
-87 64 -110 98 -20 28 -103 207 -103 221 0 4 24 -17 53 -47 28 -29 105 -105
169 -167z m2124 128 c-41 -98 -82 -157 -145 -210 -45 -37 -54 -41 -106 -41
-31 0 -55 4 -53 9 2 8 326 317 335 320 1 1 -13 -34 -31 -78z m-941 -2626 c60
-5 206 -42 218 -54 5 -5 -17 -47 -52 -100 l-62 -91 -317 0 -318 0 -68 96 c-37
53 -66 97 -64 99 2 1 41 12 88 25 125 34 363 44 575 25z"/>
<path d="M7100 5374 c-157 -46 -329 -96 -382 -111 -76 -20 -98 -30 -98 -43 0
-10 16 -94 35 -189 19 -94 35 -182 35 -196 0 -16 7 -28 18 -31 9 -3 58 -24
107 -46 207 -94 268 -118 427 -172 93 -32 174 -56 182 -54 19 4 496 540 614
690 12 15 -15 26 -315 124 -180 58 -330 108 -333 109 -3 1 -133 -35 -290 -81z
m462 -161 c98 -31 178 -60 178 -64 0 -10 -170 -197 -246 -271 l-59 -57 -254
85 c-140 47 -273 87 -296 91 -42 5 -42 6 -55 60 -6 30 -10 56 -8 57 1 1 71 21
153 45 83 23 200 57 260 76 61 18 119 33 129 34 11 1 100 -25 198 -56z"/>
<path d="M2755 5425 c-33 -13 -171 -58 -307 -101 -136 -44 -248 -83 -248 -89
0 -5 30 -44 66 -85 37 -41 149 -172 250 -291 100 -119 207 -243 237 -275 l54
-58 134 43 c196 63 312 107 419 160 52 26 114 55 137 64 29 11 44 24 47 39 3
18 35 166 83 383 4 19 -7 24 -114 52 -65 17 -235 65 -378 107 -143 42 -273 75
-290 75 -16 -1 -57 -12 -90 -24z m376 -230 c144 -41 267 -75 275 -75 17 0 17
-2 1 -64 l-13 -48 -89 -23 c-79 -21 -387 -122 -469 -154 -27 -11 -32 -9 -69
26 -22 21 -93 96 -159 167 l-119 129 173 54 c95 30 175 57 177 59 9 9 42 1
292 -71z"/>
<path d="M4660 4363 l0 -498 -122 -93 c-68 -50 -140 -107 -160 -125 l-36 -33
-1 -304 -2 -305 113 -112 113 -112 70 19 c38 11 79 20 91 20 19 0 135 84 238
173 l39 33 -8 127 -7 126 -111 102 c-62 56 -133 125 -158 152 l-46 51 -67 -48
c-36 -26 -66 -53 -66 -59 0 -7 63 -71 140 -142 139 -130 139 -130 146 -183 3
-29 5 -54 3 -56 -2 -1 -31 -23 -64 -48 -33 -25 -76 -55 -96 -66 l-35 -21 -62
62 -62 63 0 211 c0 116 3 225 6 242 6 27 25 44 139 119 74 48 141 92 149 97
15 9 17 60 19 487 l2 477 -74 68 c-41 37 -78 70 -83 71 -4 2 -8 -221 -8 -495z"/>
<path d="M5492 4792 l-72 -67 0 -481 0 -481 83 -53 c45 -28 115 -75 154 -103
l73 -52 0 -235 0 -236 -60 -59 -60 -59 -37 19 c-20 11 -63 39 -95 62 l-58 43
1 57 0 58 134 125 c87 82 134 132 134 146 1 16 -16 33 -61 62 l-63 41 -152
-148 -152 -148 -10 -96 c-19 -169 -26 -151 99 -253 60 -49 110 -92 110 -96 0
-5 10 -8 23 -8 12 0 58 -11 102 -23 l80 -23 117 110 118 111 0 306 0 306 -87
73 c-49 40 -121 96 -160 124 l-73 50 0 498 c0 274 -3 498 -7 498 -5 -1 -41
-31 -81 -68z"/>
</g>
</svg>
